Coordinates
version=1
nRows=8
nColumns=63
inDegrees=yes

Units are S.I. units (second, meters, Newtons, ...)
If the header above contains a line with 'inDegrees', this indicates whether rotational values are in degrees (yes) or radians (no).

endheader
time	pelvis_tilt	pelvis_list	pelvis_rotation	pelvis_tx	pelvis_ty	pelvis_tz	hip_flexion_r	hip_adduction_r	hip_rotation_r	knee_angle_r	knee_angle_r_beta	ankle_angle_r	subtalar_angle_r	mtp_angle_r	hip_flexion_l	hip_adduction_l	hip_rotation_l	knee_angle_l	knee_angle_l_beta	ankle_angle_l	subtalar_angle_l	mtp_angle_l	L5_S1_Flex_Ext	L5_S1_Lat_Bending	L5_S1_axial_rotation	L4_L5_Flex_Ext	L4_L5_Lat_Bending	L4_L5_axial_rotation	L3_L4_Flex_Ext	L3_L4_Lat_Bending	L3_L4_axial_rotation	L2_L3_Flex_Ext	L2_L3_Lat_Bending	L2_L3_axial_rotation	L1_L2_Flex_Ext	L1_L2_Lat_Bending	L1_L2_axial_rotation	L1_T12_Flex_Ext	L1_T12_Lat_Bending	L1_T12_axial_rotation	Abs_r3	Abs_r2	Abs_r1	Abs_t1	Abs_t2	neck_flexion	neck_bending	neck_rotation	arm_flex_r	arm_add_r	arm_rot_r	elbow_flex_r	pro_sup_r	wrist_flex_r	wrist_dev_r	arm_flex_l	arm_add_l	arm_rot_l	elbow_flex_l	pro_sup_l	wrist_flex_l	wrist_dev_l
      0.86440678	     -2.85411817	     -7.94233599	     77.92615635	      0.31133911	      0.98828097	      0.38057856	      9.06613585	      1.73536744	      6.92590553	     10.80248616	      0.18853895	     18.46936853	    -14.46868932	      0.00000000	      5.57949819	     -0.46502556	    -12.04524161	      5.92627501	      0.10343301	     26.31852939	      2.38028485	      0.00000000	     -0.06636716	     -0.09555559	      1.77640767	     -0.12325045	     -0.12708893	      1.88743315	     -0.10903460	     -0.23233386	      1.88743315	     -0.07585102	     -0.23233386	      1.55435672	     -0.06162854	     -0.19485696	      1.44333124	     -0.03792219	     -0.14801561	      1.33230576	     -0.47405397	     -1.08094394	      9.87984656	      0.00000000	      0.00000000	     11.20579453	     -0.44157511	     -7.30542301	    -15.74147926	    -53.73847139	     32.65608145	    110.05793116	     89.46636810	     14.09017659	     31.51715757	    -11.07672177	    -56.67897511	     30.94219091	    112.47477276	     89.30304470	     30.67945890	     34.18390298
      0.88135593	     -2.62756076	     -7.88714281	     77.34158928	      0.31259058	      0.98893631	      0.38002705	      8.81664457	      2.06812242	      7.46300469	     10.52412818	      0.18368069	     18.17790159	    -14.29784612	      0.00000000	      5.43279680	     -0.79464583	    -12.60209943	      6.16517074	      0.10760253	     25.99854225	      2.30510205	      0.00000000	     -0.07020631	     -0.06242820	      1.80428311	     -0.13038013	     -0.08302950	      1.91705081	     -0.11534194	     -0.15178792	      1.91705081	     -0.08023879	     -0.15178792	      1.57874773	     -0.06519358	     -0.12730358	      1.46598003	     -0.04011588	     -0.09670128	      1.35321234	     -0.50147663	     -0.70620026	     10.03488140	      0.00000000	      0.00000000	     10.60746638	     -0.26066729	     -5.98679670	    -18.76173114	    -56.51537860	     31.07897233	    113.22849159	     89.45406938	     14.10480904	     31.52414808	    -13.19682573	    -60.17946015	     31.47325535	    115.99493562	     89.05585239	     33.05215821	     34.10827166
      0.89830508	     -2.48807264	     -7.79852586	     76.97362546	      0.31383727	      0.98944608	      0.37975334	      8.56508701	      2.28810397	      7.79076639	     10.27090419	      0.17926110	     18.04302195	    -14.06793363	      0.00000000	      5.32043844	     -1.02257640	    -12.93999042	      6.44362202	      0.11246242	     25.71435654	      2.17939181	      0.00000000	     -0.08159931	     -0.05210016	      1.71576498	     -0.15153809	     -0.06929321	      1.82300029	     -0.13405951	     -0.12667632	      1.82300029	     -0.09325986	     -0.12667632	      1.50129436	     -0.07577312	     -0.10624264	      1.39405904	     -0.04662585	     -0.08070314	      1.28682373	     -0.58285574	     -0.58936737	      9.54257008	      0.00000000	      0.00000000	     10.01237518	     -0.53794154	     -5.23736268	    -20.30931741	    -58.95079134	     30.83035659	    115.91562922	     89.44054264	     14.64361061	     31.05144960	    -14.99675544	    -63.83090252	     32.88544133	    119.50142081	     88.56913675	     34.26704503	     33.83876221
      0.91525424	     -2.20237835	     -7.91834977	     76.34853483	      0.31446602	      0.98966474	      0.37969500	      8.53122423	      2.70138853	      8.66843981	     10.04113256	      0.17525082	     17.65851305	    -14.19856774	      0.00000000	      5.41434812	     -1.46538177	    -14.03546511	      6.79769246	      0.11864211	     25.79238375	      2.82825624	      0.00000000	     -0.07140961	     -0.00265168	      1.92471082	     -0.13261479	     -0.00352673	      2.04500524	     -0.11731886	     -0.00644729	      2.04500524	     -0.08161405	     -0.00644729	      1.68412196	     -0.06631097	     -0.00540731	      1.56382754	     -0.04080345	     -0.00410745	      1.44353311	     -0.51007173	     -0.02999633	     10.70466415	      0.00000000	      0.00000000	      9.37060932	     -0.69190020	     -4.77398576	    -26.80076919	    -59.80848330	     24.58382538	    118.40572144	     89.44154129	     18.99195980	     29.19872598	    -11.15624774	    -67.01486633	     39.80005608	    122.12862929	     87.64092236	     35.34760193	     33.06409935
      0.93220339	     -2.07369061	     -7.89726658	     75.88128676	      0.31520100	      0.98992361	      0.37993668	      8.43890019	      2.89870909	      9.10293879	      9.91421219	      0.17303565	     17.56617376	    -13.91182523	      0.00000000	      5.41508740	     -1.68223601	    -14.38902565	      7.08152459	      0.12359592	     25.84015464	      2.76741911	      0.00000000	     -0.08337235	      0.01383979	      1.99995339	     -0.15483078	      0.01840692	      2.12495047	     -0.13697243	      0.03365006	      2.12495047	     -0.09528625	      0.03365006	      1.74995921	     -0.07741956	      0.02822210	      1.62496213	     -0.04763896	      0.02143783	      1.49996504	     -0.59552033	      0.15655846	     11.12314075	      0.00000000	      0.00000000	      8.77878287	     -0.65860233	     -4.14685276	    -30.57851916	    -60.86718823	     21.81612159	    120.27151818	     89.42909771	     22.01478571	     26.07178223	     -7.77019697	    -69.84098857	     46.22517971	    124.38208510	     86.13226840	     33.97977396	     30.84841934
      0.94915254	     -2.16742512	     -7.94150757	     75.32456550	      0.31610142	      0.98992526	      0.38025161	      8.55385256	      2.91137125	      9.60361895	      9.97499330	      0.17409648	     17.60472347	    -13.67944025	      0.00000000	      5.56604162	     -1.69787138	    -14.65251302	      7.40101088	      0.12917201	     25.94572524	      2.43692679	      0.00000000	     -0.07773507	      0.00201915	      1.99509989	     -0.14436179	      0.00268547	      2.11979363	     -0.12771094	      0.00490937	      2.11979363	     -0.08884341	      0.00490937	      1.74571241	     -0.07218478	      0.00411745	      1.62101866	     -0.04441782	      0.00312767	      1.49632492	     -0.55525380	      0.02284105	     11.09614707	      0.00000000	      0.00000000	      8.22105024	     -0.56795234	     -3.35415455	    -32.17145891	    -62.09460108	     21.70707612	    121.44992436	     89.39884252	     24.95638447	     21.42734592	     -8.32029563	    -71.74218229	     47.88209992	    125.86708819	     85.00121605	     33.66108853	     26.25983945
      0.96610169	     -2.28400456	     -7.82011057	     74.80635452	      0.31670376	      0.98995837	      0.38033292	      8.49987630	      2.83886539	     10.20061595	     10.06710094	      0.17570406	     17.73058706	    -13.60944934	      0.00000000	      5.49957700	     -1.57976283	    -14.54928907	      7.55439322	      0.13184903	     26.07416302	      1.77270540	      0.00000000	     -0.08902940	     -0.01685049	      2.16258885	     -0.16533650	     -0.02241115	      2.29775065	     -0.14626640	     -0.04097028	      2.29775065	     -0.10175170	     -0.04097028	      1.89226524	     -0.08267270	     -0.03436152	      1.75710344	     -0.05087140	     -0.02610141	      1.62194164	     -0.63592809	     -0.19061612	     12.02767040	      0.00000000	      0.00000000	      7.75063953	     -0.66804103	     -4.01823819	    -35.79289188	    -62.86291970	     20.94396371	    121.94307751	     89.38875703	     23.14400493	     12.79805901	     -4.40603573	    -73.34655084	     53.40904985	    126.98395812	     86.64529467	     32.40892699	     19.49640068
      0.98305085	     -2.56164895	     -7.65699718	     74.24927214	      0.31736769	      0.98984651	      0.38029517	      8.45567112	      2.59316134	     10.78963390	     10.20760067	      0.17815624	     17.95184098	    -13.52937787	      0.00000000	      5.44509538	     -1.29674765	    -14.58464177	      7.68659753	      0.13415644	     26.26962619	      1.29452729	      0.00000000	     -0.09648520	     -0.05601798	      2.30308726	     -0.17918267	     -0.07450391	      2.44703021	     -0.15851554	     -0.13620211	      2.44703021	     -0.11027294	     -0.13620211	      2.01520135	     -0.08959616	     -0.11423186	      1.87125840	     -0.05513165	     -0.08677185	      1.72731545	     -0.68918416	     -0.63368658	     12.80908042	      0.00000000	      0.00000000	      7.39297530	     -0.64126724	     -4.50851430	    -37.09724488	    -63.11356373	     21.88553686	    122.38453404	     89.35094528	     23.09185309	      7.34793485	     -3.05845523	    -74.07461579	     55.52783892	    128.11336123	     87.03240001	     31.50275343	     15.72055699
